<?xml version="1.0" encoding="UTF-8" standalone="no"?>
<!DOCTYPE svg PUBLIC "-//W3C//DTD SVG 1.1//EN"
 "http://www.w3.org/Graphics/SVG/1.1/DTD/svg11.dtd">
<!-- Generated by graphviz version 2.40.1 (20161225.0304)
 -->
<!-- Title: dependencies Pages: 1 -->
<svg width="2736pt" height="284pt"
 viewBox="0.00 0.00 2736.00 284.00" xmlns="http://www.w3.org/2000/svg" xmlns:xlink="http://www.w3.org/1999/xlink">
<g id="graph0" class="graph" transform="scale(1 1) rotate(0) translate(4 280)">
<title>dependencies</title>
<polygon fill="#ffffff" stroke="transparent" points="-4,4 -4,-280 2732,-280 2732,4 -4,4"/>
<text text-anchor="start" x="1343.0091" y="-42.4" font-family="sans-serif" font-weight="bold" font-size="14.00" fill="#000000">Legend</text>
<polygon fill="#ffffb3" stroke="transparent" points="1130,-10 1130,-30 1150,-30 1150,-10 1130,-10"/>
<text text-anchor="start" x="1153.629" y="-15.4" font-family="sans-serif" font-size="14.00" fill="#000000"> &#160;Declarations</text>
<polygon fill="#8dd3c7" stroke="transparent" points="1243,-10 1243,-30 1263,-30 1263,-10 1243,-10"/>
<text text-anchor="start" x="1266.7251" y="-15.4" font-family="sans-serif" font-size="14.00" fill="#000000"> &#160;Module</text>
<polygon fill="#80b1d3" stroke="transparent" points="1329,-10 1329,-30 1349,-30 1349,-10 1329,-10"/>
<text text-anchor="start" x="1352.7812" y="-15.4" font-family="sans-serif" font-size="14.00" fill="#000000"> &#160;Bootstrap</text>
<polygon fill="#fdb462" stroke="transparent" points="1426,-10 1426,-30 1446,-30 1446,-10 1426,-10"/>
<text text-anchor="start" x="1449.6732" y="-15.4" font-family="sans-serif" font-size="14.00" fill="#000000"> &#160;Providers</text>
<polygon fill="#fb8072" stroke="transparent" points="1522,-10 1522,-30 1542,-30 1542,-10 1522,-10"/>
<text text-anchor="start" x="1545.7258" y="-15.4" font-family="sans-serif" font-size="14.00" fill="#000000"> &#160;Exports</text>
<g id="clust1" class="cluster">
<title>cluster_AppModule</title>
<polygon fill="none" stroke="#000000" stroke-dasharray="1,5" points="8,-70 8,-268 2720,-268 2720,-70 8,-70"/>
</g>
<g id="clust2" class="cluster">
<title>cluster_AppModule_declarations</title>
<polygon fill="none" stroke="#000000" points="318,-78 318,-130 2712,-130 2712,-78 318,-78"/>
</g>
<g id="clust20" class="cluster">
<title>cluster_AppModule_imports</title>
<polygon fill="none" stroke="#000000" points="166,-78 166,-130 310,-130 310,-78 166,-78"/>
</g>
<g id="clust22" class="cluster">
<title>cluster_AppModule_bootstrap</title>
<polygon fill="none" stroke="#000000" points="1261,-208 1261,-260 1385,-260 1385,-208 1261,-208"/>
</g>
<g id="clust23" class="cluster">
<title>cluster_AppModule_providers</title>
<polygon fill="none" stroke="#000000" points="16,-78 16,-130 158,-130 158,-78 16,-78"/>
</g>
<!-- AppComponent -->
<g id="node1" class="node">
<title>AppComponent</title>
<polygon fill="#ffffb3" stroke="#000000" points="2703.9399,-122 2598.0601,-122 2598.0601,-86 2703.9399,-86 2703.9399,-122"/>
<text text-anchor="middle" x="2651" y="-99.8" font-family="Times,serif" font-size="14.00" fill="#000000">AppComponent</text>
</g>
<!-- AppModule -->
<g id="node18" class="node">
<title>AppModule</title>
<polygon fill="#8dd3c7" stroke="#000000" points="1364.6571,-187 1361.6571,-191 1340.6571,-191 1337.6571,-187 1281.3429,-187 1281.3429,-151 1364.6571,-151 1364.6571,-187"/>
<text text-anchor="middle" x="1323" y="-164.8" font-family="Times,serif" font-size="14.00" fill="#000000">AppModule</text>
</g>
<!-- AppComponent&#45;&gt;AppModule -->
<g id="edge1" class="edge">
<title>AppComponent&#45;&gt;AppModule</title>
<path fill="none" stroke="#000000" d="M2651,-122.1532C2651,-145.7566 2651,-184 2651,-184 2651,-184 1374.9378,-184 1374.9378,-184"/>
<polygon fill="#000000" stroke="#000000" points="1374.9378,-180.5001 1364.9378,-184 1374.9377,-187.5001 1374.9378,-180.5001"/>
</g>
<!-- CategoryPipe -->
<g id="node2" class="node">
<title>CategoryPipe</title>
<polygon fill="#ffffb3" stroke="#000000" points="2580.205,-122 2487.795,-122 2487.795,-86 2580.205,-86 2580.205,-122"/>
<text text-anchor="middle" x="2534" y="-99.8" font-family="Times,serif" font-size="14.00" fill="#000000">CategoryPipe</text>
</g>
<!-- CategoryPipe&#45;&gt;AppModule -->
<g id="edge2" class="edge">
<title>CategoryPipe&#45;&gt;AppModule</title>
<path fill="none" stroke="#000000" d="M2534,-122.0109C2534,-144.4852 2534,-180 2534,-180 2534,-180 1374.6854,-180 1374.6854,-180"/>
<polygon fill="#000000" stroke="#000000" points="1374.6854,-176.5001 1364.6854,-180 1374.6853,-183.5001 1374.6854,-176.5001"/>
</g>
<!-- CheckoutComponent -->
<g id="node3" class="node">
<title>CheckoutComponent</title>
<polygon fill="#ffffb3" stroke="#000000" points="2469.4888,-122 2334.5112,-122 2334.5112,-86 2469.4888,-86 2469.4888,-122"/>
<text text-anchor="middle" x="2402" y="-99.8" font-family="Times,serif" font-size="14.00" fill="#000000">CheckoutComponent</text>
</g>
<!-- CheckoutComponent&#45;&gt;AppModule -->
<g id="edge3" class="edge">
<title>CheckoutComponent&#45;&gt;AppModule</title>
<path fill="none" stroke="#000000" d="M2402,-122.0449C2402,-143.6623 2402,-177 2402,-177 2402,-177 1374.9669,-177 1374.9669,-177"/>
<polygon fill="#000000" stroke="#000000" points="1374.967,-173.5001 1364.9669,-177 1374.9669,-180.5001 1374.967,-173.5001"/>
</g>
<!-- ConfirmationComponent -->
<g id="node4" class="node">
<title>ConfirmationComponent</title>
<polygon fill="#ffffb3" stroke="#000000" points="2316.2674,-122 2159.7326,-122 2159.7326,-86 2316.2674,-86 2316.2674,-122"/>
<text text-anchor="middle" x="2238" y="-99.8" font-family="Times,serif" font-size="14.00" fill="#000000">ConfirmationComponent</text>
</g>
<!-- ConfirmationComponent&#45;&gt;AppModule -->
<g id="edge4" class="edge">
<title>ConfirmationComponent&#45;&gt;AppModule</title>
<path fill="none" stroke="#000000" d="M2238,-122.1289C2238,-142.5724 2238,-173 2238,-173 2238,-173 1374.6933,-173 1374.6933,-173"/>
<polygon fill="#000000" stroke="#000000" points="1374.6933,-169.5001 1364.6933,-173 1374.6933,-176.5001 1374.6933,-169.5001"/>
</g>
<!-- CreateUserComponent -->
<g id="node5" class="node">
<title>CreateUserComponent</title>
<polygon fill="#ffffb3" stroke="#000000" points="2141.2907,-122 1996.7093,-122 1996.7093,-86 2141.2907,-86 2141.2907,-122"/>
<text text-anchor="middle" x="2069" y="-99.8" font-family="Times,serif" font-size="14.00" fill="#000000">CreateUserComponent</text>
</g>
<!-- CreateUserComponent&#45;&gt;AppModule -->
<g id="edge5" class="edge">
<title>CreateUserComponent&#45;&gt;AppModule</title>
<path fill="none" stroke="#000000" d="M2069,-122.1061C2069,-141.3391 2069,-169 2069,-169 2069,-169 1374.7067,-169 1374.7067,-169"/>
<polygon fill="#000000" stroke="#000000" points="1374.7067,-165.5001 1364.7067,-169 1374.7067,-172.5001 1374.7067,-165.5001"/>
</g>
<!-- FrontPageComponent -->
<g id="node6" class="node">
<title>FrontPageComponent</title>
<polygon fill="#ffffb3" stroke="#000000" points="1978.3781,-122 1839.6219,-122 1839.6219,-86 1978.3781,-86 1978.3781,-122"/>
<text text-anchor="middle" x="1909" y="-99.8" font-family="Times,serif" font-size="14.00" fill="#000000">FrontPageComponent</text>
</g>
<!-- FrontPageComponent&#45;&gt;AppModule -->
<g id="edge6" class="edge">
<title>FrontPageComponent&#45;&gt;AppModule</title>
<path fill="none" stroke="#000000" d="M1909,-122.2667C1909,-140.5552 1909,-166 1909,-166 1909,-166 1374.6739,-166 1374.6739,-166"/>
<polygon fill="#000000" stroke="#000000" points="1374.6739,-162.5001 1364.6739,-166 1374.6739,-169.5001 1374.6739,-162.5001"/>
</g>
<!-- FurnitureComponent -->
<g id="node7" class="node">
<title>FurnitureComponent</title>
<polygon fill="#ffffb3" stroke="#000000" points="1821.9327,-122 1688.0673,-122 1688.0673,-86 1821.9327,-86 1821.9327,-122"/>
<text text-anchor="middle" x="1755" y="-99.8" font-family="Times,serif" font-size="14.00" fill="#000000">FurnitureComponent</text>
</g>
<!-- FurnitureComponent&#45;&gt;AppModule -->
<g id="edge7" class="edge">
<title>FurnitureComponent&#45;&gt;AppModule</title>
<path fill="none" stroke="#000000" d="M1755,-122.0336C1755,-139.0597 1755,-162 1755,-162 1755,-162 1374.8145,-162 1374.8145,-162"/>
<polygon fill="#000000" stroke="#000000" points="1374.8145,-158.5001 1364.8145,-162 1374.8145,-165.5001 1374.8145,-158.5001"/>
</g>
<!-- LoginComponent -->
<g id="node8" class="node">
<title>LoginComponent</title>
<polygon fill="#ffffb3" stroke="#000000" points="1670.2758,-122 1555.7242,-122 1555.7242,-86 1670.2758,-86 1670.2758,-122"/>
<text text-anchor="middle" x="1613" y="-99.8" font-family="Times,serif" font-size="14.00" fill="#000000">LoginComponent</text>
</g>
<!-- LoginComponent&#45;&gt;AppModule -->
<g id="edge8" class="edge">
<title>LoginComponent&#45;&gt;AppModule</title>
<path fill="none" stroke="#000000" d="M1613,-122.0091C1613,-138.0494 1613,-159 1613,-159 1613,-159 1374.8588,-159 1374.8588,-159"/>
<polygon fill="#000000" stroke="#000000" points="1374.8588,-155.5001 1364.8588,-159 1374.8587,-162.5001 1374.8588,-155.5001"/>
</g>
<!-- MyPageComponent -->
<g id="node9" class="node">
<title>MyPageComponent</title>
<polygon fill="#ffffb3" stroke="#000000" points="1537.9888,-122 1410.0112,-122 1410.0112,-86 1537.9888,-86 1537.9888,-122"/>
<text text-anchor="middle" x="1474" y="-99.8" font-family="Times,serif" font-size="14.00" fill="#000000">MyPageComponent</text>
</g>
<!-- MyPageComponent&#45;&gt;AppModule -->
<g id="edge9" class="edge">
<title>MyPageComponent&#45;&gt;AppModule</title>
<path fill="none" stroke="#000000" d="M1474,-122.1243C1474,-136.7832 1474,-155 1474,-155 1474,-155 1374.6611,-155 1374.6611,-155"/>
<polygon fill="#000000" stroke="#000000" points="1374.6612,-151.5001 1364.6611,-155 1374.6611,-158.5001 1374.6612,-151.5001"/>
</g>
<!-- NotFoundComponent -->
<g id="node10" class="node">
<title>NotFoundComponent</title>
<polygon fill="#ffffb3" stroke="#000000" points="1392.1122,-122 1253.8878,-122 1253.8878,-86 1392.1122,-86 1392.1122,-122"/>
<text text-anchor="middle" x="1323" y="-99.8" font-family="Times,serif" font-size="14.00" fill="#000000">NotFoundComponent</text>
</g>
<!-- NotFoundComponent&#45;&gt;AppModule -->
<g id="edge10" class="edge">
<title>NotFoundComponent&#45;&gt;AppModule</title>
<path fill="none" stroke="#000000" d="M1323,-122.1061C1323,-122.1061 1323,-140.991 1323,-140.991"/>
<polygon fill="#000000" stroke="#000000" points="1319.5001,-140.9909 1323,-150.991 1326.5001,-140.991 1319.5001,-140.9909"/>
</g>
<!-- ProductCarouselComponent -->
<g id="node11" class="node">
<title>ProductCarouselComponent</title>
<polygon fill="#ffffb3" stroke="#000000" points="1236.1428,-122 1061.8572,-122 1061.8572,-86 1236.1428,-86 1236.1428,-122"/>
<text text-anchor="middle" x="1149" y="-99.8" font-family="Times,serif" font-size="14.00" fill="#000000">ProductCarouselComponent</text>
</g>
<!-- ProductCarouselComponent&#45;&gt;AppModule -->
<g id="edge11" class="edge">
<title>ProductCarouselComponent&#45;&gt;AppModule</title>
<path fill="none" stroke="#000000" d="M1149,-122.1243C1149,-136.7832 1149,-155 1149,-155 1149,-155 1271.3227,-155 1271.3227,-155"/>
<polygon fill="#000000" stroke="#000000" points="1271.3227,-158.5001 1281.3227,-155 1271.3226,-151.5001 1271.3227,-158.5001"/>
</g>
<!-- SearchComponent -->
<g id="node12" class="node">
<title>SearchComponent</title>
<polygon fill="#ffffb3" stroke="#000000" points="1043.9201,-122 924.0799,-122 924.0799,-86 1043.9201,-86 1043.9201,-122"/>
<text text-anchor="middle" x="984" y="-99.8" font-family="Times,serif" font-size="14.00" fill="#000000">SearchComponent</text>
</g>
<!-- SearchComponent&#45;&gt;AppModule -->
<g id="edge12" class="edge">
<title>SearchComponent&#45;&gt;AppModule</title>
<path fill="none" stroke="#000000" d="M984,-122.0091C984,-138.0494 984,-159 984,-159 984,-159 1271.0919,-159 1271.0919,-159"/>
<polygon fill="#000000" stroke="#000000" points="1271.092,-162.5001 1281.0919,-159 1271.0919,-155.5001 1271.092,-162.5001"/>
</g>
<!-- SearchPipe -->
<g id="node13" class="node">
<title>SearchPipe</title>
<polygon fill="#ffffb3" stroke="#000000" points="906.4748,-122 827.5252,-122 827.5252,-86 906.4748,-86 906.4748,-122"/>
<text text-anchor="middle" x="867" y="-99.8" font-family="Times,serif" font-size="14.00" fill="#000000">SearchPipe</text>
</g>
<!-- SearchPipe&#45;&gt;AppModule -->
<g id="edge13" class="edge">
<title>SearchPipe&#45;&gt;AppModule</title>
<path fill="none" stroke="#000000" d="M867,-122.0336C867,-139.0597 867,-162 867,-162 867,-162 1271.3242,-162 1271.3242,-162"/>
<polygon fill="#000000" stroke="#000000" points="1271.3242,-165.5001 1281.3242,-162 1271.3242,-158.5001 1271.3242,-165.5001"/>
</g>
<!-- ShowroomPipe -->
<g id="node14" class="node">
<title>ShowroomPipe</title>
<polygon fill="#ffffb3" stroke="#000000" points="809.3287,-122 706.6713,-122 706.6713,-86 809.3287,-86 809.3287,-122"/>
<text text-anchor="middle" x="758" y="-99.8" font-family="Times,serif" font-size="14.00" fill="#000000">ShowroomPipe</text>
</g>
<!-- ShowroomPipe&#45;&gt;AppModule -->
<g id="edge14" class="edge">
<title>ShowroomPipe&#45;&gt;AppModule</title>
<path fill="none" stroke="#000000" d="M758,-122.2667C758,-140.5552 758,-166 758,-166 758,-166 1270.9948,-166 1270.9948,-166"/>
<polygon fill="#000000" stroke="#000000" points="1270.9948,-169.5001 1280.9948,-166 1270.9947,-162.5001 1270.9948,-169.5001"/>
</g>
<!-- SingleProductComponent -->
<g id="node15" class="node">
<title>SingleProductComponent</title>
<polygon fill="#ffffb3" stroke="#000000" points="689.1596,-122 528.8404,-122 528.8404,-86 689.1596,-86 689.1596,-122"/>
<text text-anchor="middle" x="609" y="-99.8" font-family="Times,serif" font-size="14.00" fill="#000000">SingleProductComponent</text>
</g>
<!-- SingleProductComponent&#45;&gt;AppModule -->
<g id="edge15" class="edge">
<title>SingleProductComponent&#45;&gt;AppModule</title>
<path fill="none" stroke="#000000" d="M609,-122.1061C609,-141.3391 609,-169 609,-169 609,-169 1271.2643,-169 1271.2643,-169"/>
<polygon fill="#000000" stroke="#000000" points="1271.2643,-172.5001 1281.2643,-169 1271.2642,-165.5001 1271.2643,-172.5001"/>
</g>
<!-- TimehPipe -->
<g id="node16" class="node">
<title>TimehPipe</title>
<polygon fill="#ffffb3" stroke="#000000" points="510.9374,-122 433.0626,-122 433.0626,-86 510.9374,-86 510.9374,-122"/>
<text text-anchor="middle" x="472" y="-99.8" font-family="Times,serif" font-size="14.00" fill="#000000">TimehPipe</text>
</g>
<!-- TimehPipe&#45;&gt;AppModule -->
<g id="edge16" class="edge">
<title>TimehPipe&#45;&gt;AppModule</title>
<path fill="none" stroke="#000000" d="M472,-122.1289C472,-142.5724 472,-173 472,-173 472,-173 1271.089,-173 1271.089,-173"/>
<polygon fill="#000000" stroke="#000000" points="1271.0891,-176.5001 1281.089,-173 1271.089,-169.5001 1271.0891,-176.5001"/>
</g>
<!-- ValationPipe -->
<g id="node17" class="node">
<title>ValationPipe</title>
<polygon fill="#ffffb3" stroke="#000000" points="415.5955,-122 326.4045,-122 326.4045,-86 415.5955,-86 415.5955,-122"/>
<text text-anchor="middle" x="371" y="-99.8" font-family="Times,serif" font-size="14.00" fill="#000000">ValationPipe</text>
</g>
<!-- ValationPipe&#45;&gt;AppModule -->
<g id="edge17" class="edge">
<title>ValationPipe&#45;&gt;AppModule</title>
<path fill="none" stroke="#000000" d="M371,-122.0449C371,-143.6623 371,-177 371,-177 371,-177 1271.174,-177 1271.174,-177"/>
<polygon fill="#000000" stroke="#000000" points="1271.174,-180.5001 1281.174,-177 1271.174,-173.5001 1271.174,-180.5001"/>
</g>
<!-- AppComponent  -->
<g id="node20" class="node">
<title>AppComponent </title>
<polygon fill="#80b1d3" stroke="#000000" points="1377.439,-252 1268.561,-252 1268.561,-216 1377.439,-216 1377.439,-252"/>
<text text-anchor="middle" x="1323" y="-229.8" font-family="Times,serif" font-size="14.00" fill="#000000">AppComponent </text>
</g>
<!-- AppModule&#45;&gt;AppComponent  -->
<g id="edge19" class="edge">
<title>AppModule&#45;&gt;AppComponent </title>
<path fill="none" stroke="#000000" stroke-dasharray="1,5" d="M1323,-187.1061C1323,-187.1061 1323,-205.991 1323,-205.991"/>
<polygon fill="#000000" stroke="#000000" points="1319.5001,-205.9909 1323,-215.991 1326.5001,-205.991 1319.5001,-205.9909"/>
</g>
<!-- AppRoutingModule -->
<g id="node19" class="node">
<title>AppRoutingModule</title>
<polygon fill="#8dd3c7" stroke="#000000" points="302.2744,-122 299.2744,-126 278.2744,-126 275.2744,-122 173.7256,-122 173.7256,-86 302.2744,-86 302.2744,-122"/>
<text text-anchor="middle" x="238" y="-99.8" font-family="Times,serif" font-size="14.00" fill="#000000">AppRoutingModule</text>
</g>
<!-- AppRoutingModule&#45;&gt;AppModule -->
<g id="edge18" class="edge">
<title>AppRoutingModule&#45;&gt;AppModule</title>
<path fill="none" stroke="#000000" d="M238,-122.0109C238,-144.4852 238,-180 238,-180 238,-180 1271.1315,-180 1271.1315,-180"/>
<polygon fill="#000000" stroke="#000000" points="1271.1316,-183.5001 1281.1315,-180 1271.1315,-176.5001 1271.1316,-183.5001"/>
</g>
<!-- LoginService -->
<g id="node21" class="node">
<title>LoginService</title>
<ellipse fill="#fdb462" stroke="#000000" cx="87" cy="-104" rx="63.1209" ry="18"/>
<text text-anchor="middle" x="87" y="-99.8" font-family="Times,serif" font-size="14.00" fill="#000000">LoginService</text>
</g>
<!-- LoginService&#45;&gt;AppModule -->
<g id="edge20" class="edge">
<title>LoginService&#45;&gt;AppModule</title>
<path fill="none" stroke="#000000" d="M87,-122.1532C87,-145.7566 87,-184 87,-184 87,-184 1271.1678,-184 1271.1678,-184"/>
<polygon fill="#000000" stroke="#000000" points="1271.1679,-187.5001 1281.1678,-184 1271.1678,-180.5001 1271.1679,-187.5001"/>
</g>
</g>
</svg>
